HIERARCHY
ROOT Hips
{
 OFFSET 0.000000 0.000000 0.000000
 CHANNELS 6 Xposition Yposition Zposition Yrotation Xrotation Zrotation
 JOINT Chest
 {
  OFFSET 0.000000 10.385163 0.011643
  CHANNELS 3 Yrotation Xrotation Zrotation
  JOINT Chest2
  {
   OFFSET 0.000000 11.579334 -0.021150
   CHANNELS 3 Yrotation Xrotation Zrotation
   JOINT Chest3
   {
    OFFSET 0.000000 10.463212 0.000000
    CHANNELS 3 Yrotation Xrotation Zrotation
    JOINT Chest4
    {
     OFFSET 0.000000 10.463212 0.000000
     CHANNELS 3 Yrotation Xrotation Zrotation
     JOINT Neck
     {
      OFFSET 0.000000 14.544862 0.000000
      CHANNELS 3 Yrotation Xrotation Zrotation
      JOINT Head
      {
       OFFSET 0.000000 9.730630 -0.050295
       CHANNELS 3 Yrotation Xrotation Zrotation
       End Site
       {
        OFFSET 0.000000 18.757589 -0.026270
       }
      }
     }
     JOINT RightCollar
     {
      OFFSET -2.985174 8.102313 0.000000
      CHANNELS 3 Yrotation Xrotation Zrotation
      JOINT RightShoulder
      {
       OFFSET -13.558590 0.000000 0.000000
       CHANNELS 3 Yrotation Xrotation Zrotation
       JOINT RightElbow
       {
        OFFSET -28.208579 0.000000 0.000000
        CHANNELS 3 Yrotation Xrotation Zrotation
        JOINT RightWrist
        {
         OFFSET -23.322907 0.000000 0.010349
         CHANNELS 3 Yrotation Xrotation Zrotation
         End Site
         {
          OFFSET -17.603338 0.000000 0.000000
         }
        }
       }
      }
     }
     JOINT LeftCollar
     {
      OFFSET 2.985174 8.102313 0.000000
      CHANNELS 3 Yrotation Xrotation Zrotation
      JOINT LeftShoulder
      {
       OFFSET 13.558590 0.000000 0.000000
       CHANNELS 3 Yrotation Xrotation Zrotation
       JOINT LeftElbow
       {
        OFFSET 28.208579 0.000000 0.000000
        CHANNELS 3 Yrotation Xrotation Zrotation
        JOINT LeftWrist
        {
         OFFSET 23.322907 0.000000 0.010349
         CHANNELS 3 Yrotation Xrotation Zrotation
         End Site
         {
          OFFSET 17.603338 0.000000 0.000000
         }
        }
       }
      }
     }
    }
   }
  }
 }
 JOINT RightHip
 {
  OFFSET -8.341224 -0.057053 -0.005822
  CHANNELS 3 Yrotation Xrotation Zrotation
  JOINT RightKnee
  {
   OFFSET 0.000000 -44.280013 0.005508
   CHANNELS 3 Yrotation Xrotation Zrotation
   JOINT RightAnkle
   {
    OFFSET 0.000000 -43.261728 0.009315
    CHANNELS 3 Yrotation Xrotation Zrotation
    JOINT RightToe
    {
     OFFSET 0.000000 -8.082955 18.257715
     CHANNELS 3 Yrotation Xrotation Zrotation
     End Site
     {
      OFFSET 0.000000 -1.634678 7.189621
     }
    }
   }
  }
 }
 JOINT LeftHip
 {
  OFFSET 8.341224 -0.057053 -0.005822
  CHANNELS 3 Yrotation Xrotation Zrotation
  JOINT LeftKnee
  {
   OFFSET 0.000000 -44.280013 0.005508
   CHANNELS 3 Yrotation Xrotation Zrotation
   JOINT LeftAnkle
   {
    OFFSET 0.000000 -43.261728 0.009315
    CHANNELS 3 Yrotation Xrotation Zrotation
    JOINT LeftToe
    {
     OFFSET 0.000000 -8.082955 18.257715
     CHANNELS 3 Yrotation Xrotation Zrotation
     End Site
     {
      OFFSET 0.000000 -1.634678 7.189621
     }
    }
   }
  }
 }
}
MOTION
Frames: 14
Frame Time: 0.016667
-15.109780 93.123417 -889.538895 163.490855 -12.917061 -1.767418 0.166700 11.133424 1.861447 0.028818 4.948752 0.819255 0.028759 4.948666 0.819252 0.014858 3.711472 0.613824 23.925422 12.803631 -7.585749 47.568597 -5.588212 -22.457773 2.160480 -4.206165 4.872674 -7.217176 -6.819724 67.113181 79.636027 -17.196677 42.610293 4.638989 -1.439425 3.238592 -0.357408 -3.598576 -9.187041 -10.350847 -13.865961 -57.821296 -64.546317 -28.304454 -44.181953 2.128667 -5.903707 -16.225104 -7.864556 -18.128303 -7.383530 -1.646354 50.324217 -7.471902 -4.638672 -8.532095 7.222485 0.000000 0.000000 0.000000 1.731780 -14.533308 0.698011 0.936039 34.704083 -0.031050 11.103910 -4.997639 1.714349 0.029237 -2.671833 -1.209665
-16.270875 93.524149 -888.699027 163.746340 -12.815333 -1.758287 0.609322 10.860103 2.021039 0.222054 4.829312 0.879755 0.222054 4.829312 0.879755 0.159476 3.622313 0.657667 23.727831 12.915128 -7.633716 47.183072 -5.450368 -22.449292 1.931791 -4.310434 4.652365 -5.404367 -7.451040 66.754681 82.058991 -18.492326 42.782755 4.990006 -1.270517 4.574266 -0.063974 -4.203391 -9.369042 -7.907783 -11.218739 -59.047670 -64.486323 -28.851300 -45.228666 2.587232 -5.967294 -17.082814 -7.403037 -17.896173 -7.957655 -5.888242 54.415898 -8.494178 -4.263671 -9.309988 8.295545 0.000000 0.000000 0.000000 2.903492 -14.071792 -0.323841 0.361402 32.073679 0.514987 10.562123 -2.768224 1.792603 0.012484 -2.849253 -0.501988
-17.239206 94.089854 -887.724022 163.923077 -12.653042 -1.700580 1.194679 10.540877 2.096975 0.480820 4.690234 0.900692 0.480820 4.690326 0.900716 0.353489 3.518541 0.671482 23.519463 13.015718 -7.513369 46.732603 -5.411141 -22.144857 1.731306 -4.418905 4.504447 -4.114420 -8.295831 66.556392 83.581101 -20.842675 44.144485 5.212730 -1.941275 5.766130 0.326937 -4.461544 -9.210064 -4.911652 -8.537911 -60.542102 -64.591054 -29.357394 -46.326781 2.906031 -5.864477 -17.532325 -8.081197 -17.281012 -7.582635 -8.649695 57.308911 -9.667868 -4.381808 -9.849837 8.918409 0.000000 0.000000 0.000000 2.799729 -13.418210 -0.597851 0.786256 28.783126 0.463990 10.027950 0.130415 1.548769 -0.014654 -3.126923 0.608410
-18.103775 94.793099 -886.636100 164.075555 -12.365098 -1.597369 1.892188 10.143534 2.118206 0.790984 4.516758 0.896103 0.790876 4.516755 0.896118 0.586129 3.388736 0.665903 23.286813 13.114547 -7.278446 46.204759 -5.432972 -21.632040 1.520451 -4.526039 4.387958 -3.034596 -9.203145 66.374121 84.719162 -23.892715 46.059934 5.437618 -3.166845 6.807479 0.785530 -4.553240 -8.891166 -1.457271 -5.639669 -62.021894 -64.751946 -29.905899 -47.639015 3.209012 -5.690212 -17.837586 -9.451315 -16.401910 -6.722987 -10.145299 59.248298 -10.517616 -4.595391 -9.998024 9.491168 0.000000 0.000000 0.000000 2.272105 -12.705002 -0.549598 1.659431 24.976336 0.152797 9.360697 3.667147 0.958036 -0.050838 -3.530173 2.086752
-18.946326 95.540036 -885.439874 164.316105 -11.863374 -1.451972 2.624573 9.629088 2.081266 1.118886 4.291222 0.866983 1.118886 4.291222 0.866983 0.832676 3.220023 0.642066 22.996069 13.219423 -6.940961 45.538801 -5.508858 -20.919257 1.230429 -4.573004 4.304823 -1.707752 -9.822910 66.179810 85.962308 -26.613216 47.394232 5.834403 -4.545308 7.463843 1.180845 -4.752726 -8.706651 2.150396 -2.698843 -62.722087 -65.059283 -30.117815 -49.053370 3.597969 -5.472409 -18.215635 -11.282910 -15.585563 -5.714319 -10.562951 60.315129 -10.974016 -4.455118 -9.611014 10.333573 0.000000 0.000000 0.000000 2.300381 -12.369792 -0.571641 2.479108 21.408801 -0.075621 8.027951 7.884144 -0.303338 -0.099353 -4.235642 4.152888
-19.775817 96.387712 -884.115832 164.641828 -11.050186 -1.251568 3.445132 8.923491 1.965906 1.488698 3.980654 0.804585 1.488993 3.980938 0.804628 1.111301 2.987936 0.593547 22.612250 13.359578 -6.442035 44.641515 -5.621721 -19.879642 0.791878 -4.647978 4.317462 0.304823 -9.807013 65.916556 87.737819 -28.576485 47.525683 6.570344 -6.028519 7.582336 1.406917 -5.252845 -8.858390 6.278919 0.201489 -62.181221 -65.749685 -29.768224 -50.668735 4.108290 -5.179344 -18.750549 -14.048069 -14.934131 -4.444562 -9.549543 60.385421 -11.147931 -3.607557 -8.493608 11.801392 0.075066 0.506306 0.397083 3.536467 -12.525722 -0.867533 3.320704 17.949536 -0.050629 5.371283 13.777937 -2.665320 -0.171051 -5.868112 7.959181
-20.583288 97.279079 -882.683485 165.058284 -10.024692 -1.002934 4.300978 8.109226 1.768080 1.875845 3.620576 0.708467 1.876129 3.620908 0.708529 1.402675 2.718175 0.520145 22.170232 13.498294 -5.840186 43.603082 -5.788026 -18.639649 0.272978 -4.662854 4.361508 2.555053 -9.508526 65.718581 89.697023 -30.037980 47.125073 7.543710 -7.537681 7.321612 1.575624 -5.834401 -9.169600 10.717804 2.799835 -60.767377 -66.722524 -29.203756 -52.322145 4.684470 -4.821556 -19.363258 -17.260292 -14.295915 -2.988335 -7.363710 59.626888 -10.874762 -2.381090 -6.874654 13.540697 0.151231 1.009086 0.799070 5.340615 -13.032293 -1.283427 4.074326 14.728100 -0.074196 1.803736 20.341770 -5.951571 -0.232931 -7.784855 12.362201
-21.423606 97.949145 -881.205978 165.688644 -8.995039 -0.734863 4.956619 7.378559 1.524164 2.173935 3.295446 0.596956 2.173935 3.295446 0.596956 1.626781 2.473747 0.435867 21.739477 13.553723 -5.326762 42.635206 -6.045784 -17.588740 -0.181535 -4.289954 4.270231 4.179815 -9.651110 65.754808 91.118295 -31.044353 47.086220 8.392483 -8.658021 7.026259 1.878911 -6.154388 -9.354628 14.295548 4.725928 -59.281226 -67.611219 -28.862385 -53.446774 5.320366 -4.484805 -20.019087 -19.299595 -13.726010 -1.950275 -5.118132 58.524548 -9.688087 -1.388064 -5.215672 14.799857 0.000000 0.000000 0.000000 6.749959 -13.964565 -1.647613 3.974852 12.884555 -0.302483 -1.486607 24.554047 -9.429498 -0.201811 -8.244016 14.135605
-22.306372 98.320637 -879.692839 166.650658 -7.870129 -0.430478 5.318051 6.699190 1.223261 2.341743 2.991114 0.465770 2.341720 2.990943 0.465725 1.753578 2.244884 0.337706 21.329659 13.494738 -4.936540 41.777371 -6.441371 -16.802281 -0.539336 -3.111233 3.910036 4.760159 -10.871244 66.108178 91.557402 -31.762249 48.037832 8.888532 -9.286504 6.818043 2.558361 -6.366037 -9.241662 16.583663 6.403124 -57.996173 -68.236204 -28.920825 -53.920462 6.152836 -4.185005 -20.809824 -19.237165 -13.452792 -1.689141 -2.843564 57.190708 -6.738231 -0.886947 -3.271092 15.408053 -0.596547 -3.599212 -3.495809 7.703178 -15.543219 -2.011265 2.007918 12.663453 -0.754305 -3.984620 24.856298 -12.982548 -0.065707 -5.906787 10.787695
-23.221985 98.470827 -878.134539 167.826655 -6.745920 -0.091012 5.480559 6.101978 0.892184 2.420653 2.722349 0.323776 2.420739 2.722294 0.323757 1.813821 2.042987 0.231960 20.928808 13.361482 -4.638807 40.984612 -6.924059 -16.205851 -0.833197 -1.536041 3.456056 4.702493 -12.538016 66.620152 91.296011 -32.169473 49.471385 9.137416 -9.615159 6.650040 3.368748 -6.346584 -8.974334 17.944027 7.612890 -56.954320 -68.760738 -29.151204 -53.854480 7.058461 -3.884028 -21.634548 -18.040769 -13.306945 -1.882000 -0.756089 55.323615 -3.155503 -0.687050 -1.263554 15.629845 -1.113663 -8.563670 -8.351203 8.298047 -17.562687 -2.348659 -0.835151 13.761034 -1.322550 -5.712335 22.676562 -16.168860 0.016188 -2.397818 4.659280
-24.196504 98.366544 -876.565648 168.981094 -6.107847 0.208558 5.490733 5.862121 0.656612 2.428726 2.613014 0.221965 2.428726 2.613014 0.221965 1.820279 1.960679 0.156057 20.576160 13.187201 -4.525440 40.349075 -7.388894 -15.964761 -1.011438 -0.488121 3.185122 4.418870 -13.470914 67.042613 90.675053 -32.128780 50.574858 9.200724 -9.742427 6.642305 3.777444 -5.339725 -8.678978 18.286358 7.350561 -56.932750 -69.314103 -29.297216 -53.017476 7.655813 -3.641893 -22.182469 -16.963535 -12.829920 -2.077704 0.061661 52.970041 -1.086484 -0.765427 -0.285239 15.207409 -0.896244 -13.038192 -11.525059 7.750453 -19.522435 -2.222886 -2.316264 16.542820 -1.803889 -6.296209 19.678336 -17.718329 -0.000000 0.000000 0.000000
-25.274784 97.937288 -874.946638 170.126403 -6.088213 0.468236 5.321397 6.129929 0.576349 2.353754 2.730800 0.185294 2.353602 2.730739 0.185266 1.763926 2.048759 0.128393 20.248290 12.944396 -4.692179 39.871077 -7.860782 -16.259431 -1.055410 -0.300810 3.163247 4.061518 -13.268431 67.301332 89.963346 -31.563758 50.977119 9.147822 -9.714032 6.852918 3.353594 -1.953953 -8.198351 17.241928 4.300102 -58.933372 -70.191651 -29.167121 -50.898815 7.808389 -3.496555 -22.371314 -16.533835 -11.958480 -2.120466 -1.187148 50.000486 -1.559763 -0.742469 -0.682001 13.620674 0.222095 -17.504265 -11.291843 4.850959 -21.513056 -1.190893 -0.951337 21.760409 -2.040391 -5.419250 16.018337 -17.084039 0.017845 0.911332 -1.274548
-26.411972 97.253558 -873.317037 171.245363 -6.551310 0.656728 4.996063 6.743137 0.614657 2.207461 3.003389 0.199863 2.207338 3.003342 0.199824 1.654035 2.253223 0.138965 19.971688 12.661551 -5.037789 39.563396 -8.321635 -16.908561 -0.982581 -0.653913 3.285259 3.492386 -12.324824 67.505600 88.921994 -30.558190 50.982496 8.891721 -9.478590 7.209547 2.553439 2.436579 -7.711115 15.342838 -0.303662 -61.751633 -71.093673 -28.877023 -48.008496 7.660328 -3.468636 -22.304172 -16.238268 -10.763782 -2.115402 -3.153622 46.670337 -2.970264 -0.847179 -2.100941 11.279984 1.249108 -21.819321 -9.136274 0.666065 -23.397916 0.482432 1.741943 28.752343 -2.023214 -3.637061 11.624825 -15.296940 0.047378 1.002329 -0.917483
-27.499558 96.493677 -871.829988 172.057226 -7.570895 0.633730 4.639147 7.507267 0.749618 2.045126 3.343913 0.257207 2.045126 3.343913 0.257207 1.532000 2.508829 0.181652 19.861209 12.456557 -5.359981 39.534450 -8.599623 -17.536935 -0.791748 -1.497782 3.547647 2.715864 -10.659905 67.652404 87.167078 -29.210109 50.755652 8.286277 -8.960344 7.610989 2.110857 4.452155 -7.787684 13.550216 -3.416338 -63.244665 -71.320720 -28.694251 -45.615986 7.252370 -3.621734 -21.959007 -15.765328 -9.023324 -1.934298 -3.794872 43.845166 -3.604498 -2.051982 -4.563136 9.172455 1.369250 -23.154302 -6.676748 -2.119151 -24.418697 2.058198 3.526262 35.792104 -1.749314 -2.085865 7.968753 -13.506916 0.000000 0.000000 0.000000
